<svg width="459" height="213" viewBox="0 0 459 213" fill="none" xmlns="http://www.w3.org/2000/svg">
<mask id="path-1-inside-1_337_984" fill="white">
<path d="M280.692 0C298.002 0 313.097 10.1837 321.078 25.2794C333.17 13.5598 351.593 6.07349 372.232 6.07346C408.652 6.07346 438.176 29.3818 438.176 58.1339C438.176 70.664 432.567 82.1593 423.226 91.143C445.772 103.668 459 118.912 459 135.357C459 178.006 370.04 212.58 260.302 212.58C188.034 212.58 124.778 197.584 90.0059 175.163C85.7121 175.803 81.2962 176.138 76.7894 176.138C34.3799 176.138 0 146.614 0 110.194C0.000161035 73.7751 34.38 44.2516 76.7894 44.2516C93.0221 44.2516 108.079 48.5766 120.481 55.9586C124.324 50.4878 131.105 46.8542 138.828 46.8542C140.823 46.8543 142.755 47.0984 144.59 47.5523C151.202 37.226 162.859 30.3683 176.138 30.3683C185.122 30.3684 193.363 33.507 199.802 38.7344C204.166 30.6823 213.107 25.163 223.427 25.163C228.955 25.1631 234.087 26.7479 238.333 29.4571C245.595 12.0922 261.83 0.000168133 280.692 0Z"/>
</mask>
<path d="M280.692 0C298.002 0 313.097 10.1837 321.078 25.2794C333.17 13.5598 351.593 6.07349 372.232 6.07346C408.652 6.07346 438.176 29.3818 438.176 58.1339C438.176 70.664 432.567 82.1593 423.226 91.143C445.772 103.668 459 118.912 459 135.357C459 178.006 370.04 212.58 260.302 212.58C188.034 212.58 124.778 197.584 90.0059 175.163C85.7121 175.803 81.2962 176.138 76.7894 176.138C34.3799 176.138 0 146.614 0 110.194C0.000161035 73.7751 34.38 44.2516 76.7894 44.2516C93.0221 44.2516 108.079 48.5766 120.481 55.9586C124.324 50.4878 131.105 46.8542 138.828 46.8542C140.823 46.8543 142.755 47.0984 144.59 47.5523C151.202 37.226 162.859 30.3683 176.138 30.3683C185.122 30.3684 193.363 33.507 199.802 38.7344C204.166 30.6823 213.107 25.163 223.427 25.163C228.955 25.1631 234.087 26.7479 238.333 29.4571C245.595 12.0922 261.83 0.000168133 280.692 0Z" fill="white"/>
<path d="M280.692 0V-0.867675V-0.867675V0ZM321.078 25.2794L320.311 25.6849L320.852 26.7073L321.682 25.9024L321.078 25.2794ZM372.232 6.07346V5.20579V5.20579V6.07346ZM438.176 58.1339H439.044V58.1339L438.176 58.1339ZM423.226 91.143L422.625 90.5176L421.778 91.3314L422.805 91.9015L423.226 91.143ZM459 135.357H459.868V135.357H459ZM260.302 212.58V213.448V213.448V212.58ZM90.0059 175.163L90.4761 174.434L90.2014 174.257L89.8781 174.305L90.0059 175.163ZM76.7894 176.138V177.006V177.006V176.138ZM0 110.194L-0.867675 110.194V110.194H0ZM76.7894 44.2516V43.3839V43.3839V44.2516ZM120.481 55.9586L120.037 56.7042L120.728 57.1156L121.191 56.4573L120.481 55.9586ZM138.828 46.8542L138.828 45.9866H138.828V46.8542ZM144.59 47.5523L144.381 48.3946L144.985 48.5439L145.321 48.0202L144.59 47.5523ZM176.138 30.3683V29.5006V29.5006V30.3683ZM199.802 38.7344L199.256 39.4081L200.067 40.067L200.565 39.1479L199.802 38.7344ZM223.427 25.163L223.427 24.2953H223.427V25.163ZM238.333 29.4571L237.866 30.1885L238.735 30.7433L239.133 29.7919L238.333 29.4571ZM280.692 0V0.867675C297.645 0.867675 312.463 10.8411 320.311 25.6849L321.078 25.2794L321.845 24.8738C313.731 9.52618 298.358 -0.867675 280.692 -0.867675V0ZM321.078 25.2794L321.682 25.9024C333.595 14.3555 351.795 6.94117 372.232 6.94114V6.07346V5.20579C351.392 5.20582 332.744 12.7641 320.474 24.6563L321.078 25.2794ZM372.232 6.07346V6.94114C408.375 6.94114 437.308 30.041 437.308 58.1339L438.176 58.1339L439.044 58.1339C439.043 28.7227 408.928 5.20579 372.232 5.20579V6.07346ZM438.176 58.1339H437.308C437.308 70.3913 431.824 81.6701 422.625 90.5176L423.226 91.143L423.827 91.7684C433.31 82.6484 439.044 70.9367 439.044 58.1339H438.176ZM423.226 91.143L422.805 91.9015C445.283 104.389 458.132 119.409 458.132 135.357H459H459.868C459.868 118.414 446.26 102.947 423.647 90.3845L423.226 91.143ZM459 135.357H458.132C458.132 145.695 452.745 155.637 442.798 164.777C432.85 173.918 418.408 182.189 400.488 189.153C364.654 203.08 315.092 211.712 260.302 211.712V212.58V213.448C315.251 213.448 365.036 204.793 401.117 190.771C419.154 183.761 433.811 175.392 443.972 166.055C454.135 156.717 459.868 146.345 459.868 135.357H459ZM260.302 212.58V211.712C188.113 211.712 125.049 196.726 90.4761 174.434L90.0059 175.163L89.5357 175.893C124.507 198.442 187.955 213.448 260.302 213.448V212.58ZM90.0059 175.163L89.8781 174.305C85.6263 174.939 81.2532 175.271 76.7894 175.271V176.138V177.006C81.3392 177.006 85.7979 176.668 90.1338 176.022L90.0059 175.163ZM76.7894 176.138V175.271C34.7304 175.271 0.867675 146.015 0.867675 110.194H0H-0.867675C-0.867675 147.212 34.0294 177.006 76.7894 177.006V176.138ZM0 110.194L0.867675 110.194C0.867833 74.3735 34.7305 45.1193 76.7894 45.1193V44.2516V43.3839C34.0295 43.3839 -0.867511 73.1766 -0.867675 110.194L0 110.194ZM76.7894 44.2516V45.1193C92.8683 45.1193 107.771 49.4033 120.037 56.7042L120.481 55.9586L120.925 55.213C108.386 47.7499 93.1759 43.384 76.7894 43.3839V44.2516ZM120.481 55.9586L121.191 56.4573C124.864 51.2284 131.374 47.7219 138.828 47.7219V46.8542V45.9866C130.835 45.9866 123.784 49.7472 119.771 55.4598L120.481 55.9586ZM138.828 46.8542L138.828 47.7219C140.752 47.7219 142.614 47.9574 144.381 48.3946L144.59 47.5523L144.798 46.71C142.896 46.2395 140.894 45.9866 138.828 45.9866L138.828 46.8542ZM144.59 47.5523L145.321 48.0202C151.778 37.935 163.164 31.236 176.138 31.236V30.3683V29.5006C162.554 29.5006 150.626 36.517 143.859 47.0844L144.59 47.5523ZM176.138 30.3683V31.236C184.916 31.236 192.966 34.3022 199.256 39.4081L199.802 38.7344L200.349 38.0608C193.76 32.7118 185.327 29.5007 176.138 29.5006V30.3683ZM199.802 38.7344L200.565 39.1479C204.773 31.3836 213.416 26.0307 223.427 26.0307V25.163V24.2953C212.798 24.2953 203.56 29.9809 199.04 38.321L199.802 38.7344ZM223.427 25.163L223.427 26.0307C228.788 26.0308 233.759 27.5674 237.866 30.1885L238.333 29.4571L238.799 28.7256C234.416 25.9284 229.122 24.2954 223.427 24.2953L223.427 25.163ZM238.333 29.4571L239.133 29.7919C246.277 12.7112 262.22 0.867839 280.692 0.867675V0V-0.867675C261.44 -0.867503 244.914 11.4733 237.532 29.1223L238.333 29.4571Z" fill="black" mask="url(#path-1-inside-1_337_984)"/>
</svg>
