<svg width="459" height="213" viewBox="0 0 459 213" fill="none" xmlns="http://www.w3.org/2000/svg">
<mask id="path-1-inside-1_337_1044" fill="white">
<path d="M280.693 0C298.002 7.93793e-05 313.097 10.1832 321.078 25.2784C333.17 13.5589 351.594 6.07346 372.233 6.07346C408.652 6.07366 438.176 29.382 438.176 58.1339C438.176 70.6641 432.568 82.1592 423.226 91.143C445.772 103.668 459 118.912 459 135.357C459 178.006 370.04 212.58 260.302 212.58C188.034 212.58 124.778 197.584 90.0059 175.163C85.7122 175.803 81.2962 176.138 76.7894 176.138C34.38 176.138 0 146.614 0 110.194C0.000161033 73.7751 34.3801 44.2517 76.7894 44.2516C93.0221 44.2516 108.079 48.5767 120.481 55.9586C124.324 50.4877 131.105 46.8542 138.828 46.8542C140.823 46.8542 142.755 47.0975 144.59 47.5513C151.202 37.2253 162.86 30.3683 176.138 30.3683C185.122 30.3683 193.363 33.5071 199.802 38.7345C204.166 30.6822 213.107 25.163 223.427 25.163C228.956 25.163 234.088 26.7477 238.334 29.4571C245.597 12.0922 261.831 0 280.693 0Z"/>
</mask>
<path d="M280.693 0C298.002 7.93793e-05 313.097 10.1832 321.078 25.2784C333.17 13.5589 351.594 6.07346 372.233 6.07346C408.652 6.07366 438.176 29.382 438.176 58.1339C438.176 70.6641 432.568 82.1592 423.226 91.143C445.772 103.668 459 118.912 459 135.357C459 178.006 370.04 212.58 260.302 212.58C188.034 212.58 124.778 197.584 90.0059 175.163C85.7122 175.803 81.2962 176.138 76.7894 176.138C34.38 176.138 0 146.614 0 110.194C0.000161033 73.7751 34.3801 44.2517 76.7894 44.2516C93.0221 44.2516 108.079 48.5767 120.481 55.9586C124.324 50.4877 131.105 46.8542 138.828 46.8542C140.823 46.8542 142.755 47.0975 144.59 47.5513C151.202 37.2253 162.86 30.3683 176.138 30.3683C185.122 30.3683 193.363 33.5071 199.802 38.7345C204.166 30.6822 213.107 25.163 223.427 25.163C228.956 25.163 234.088 26.7477 238.334 29.4571C245.597 12.0922 261.831 0 280.693 0Z" fill="white"/>
<path d="M280.693 0V-0.867675V-0.867675V0ZM321.078 25.2784L320.311 25.684L320.852 26.7063L321.682 25.9014L321.078 25.2784ZM372.233 6.07346V5.20579V5.20579V6.07346ZM438.176 58.1339H439.044V58.1339L438.176 58.1339ZM423.226 91.143L422.625 90.5176L421.778 91.3314L422.805 91.9015L423.226 91.143ZM459 135.357H459.868V135.357H459ZM260.302 212.58V213.448V213.448V212.58ZM90.0059 175.163L90.4761 174.434L90.2014 174.257L89.8781 174.305L90.0059 175.163ZM76.7894 176.138V177.006V177.006V176.138ZM0 110.194L-0.867675 110.194V110.194H0ZM76.7894 44.2516V43.3839V43.3839V44.2516ZM120.481 55.9586L120.037 56.7042L120.728 57.1156L121.191 56.4573L120.481 55.9586ZM138.828 46.8542V45.9866V45.9866V46.8542ZM144.59 47.5513L144.382 48.3936L144.985 48.5429L145.321 48.0192L144.59 47.5513ZM176.138 30.3683V29.5006V29.5006V30.3683ZM199.802 38.7345L199.256 39.4081L200.067 40.067L200.565 39.1479L199.802 38.7345ZM223.427 25.163V24.2953V24.2953V25.163ZM238.334 29.4571L237.867 30.1885L238.736 30.7433L239.134 29.7919L238.334 29.4571ZM280.693 0V0.867675C297.646 0.867752 312.463 10.8407 320.311 25.684L321.078 25.2784L321.845 24.8728C313.73 9.52577 298.359 -0.867594 280.693 -0.867675V0ZM321.078 25.2784L321.682 25.9014C333.595 14.3547 351.796 6.94114 372.233 6.94114V6.07346V5.20579C351.393 5.20579 332.744 12.7632 320.474 24.6553L321.078 25.2784ZM372.233 6.07346V6.94114C408.376 6.94133 437.308 30.0411 437.308 58.1339L438.176 58.1339L439.044 58.1339C439.044 28.7228 408.929 5.20598 372.233 5.20579V6.07346ZM438.176 58.1339H437.308C437.308 70.3914 431.824 81.6701 422.625 90.5176L423.226 91.143L423.827 91.7684C433.311 82.6484 439.044 70.9368 439.044 58.1339H438.176ZM423.226 91.143L422.805 91.9015C445.284 104.389 458.132 119.409 458.132 135.357H459H459.868C459.868 118.414 446.26 102.947 423.647 90.3845L423.226 91.143ZM459 135.357H458.132C458.132 145.695 452.745 155.637 442.798 164.777C432.85 173.918 418.408 182.189 400.488 189.153C364.654 203.08 315.092 211.712 260.302 211.712V212.58V213.448C315.251 213.448 365.036 204.793 401.117 190.771C419.154 183.761 433.811 175.392 443.972 166.055C454.135 156.717 459.868 146.345 459.868 135.357H459ZM260.302 212.58V211.712C188.113 211.712 125.049 196.727 90.4761 174.434L90.0059 175.163L89.5357 175.893C124.507 198.442 187.955 213.448 260.302 213.448V212.58ZM90.0059 175.163L89.8781 174.305C85.6264 174.939 81.2531 175.271 76.7894 175.271V176.138V177.006C81.3392 177.006 85.7979 176.668 90.1338 176.022L90.0059 175.163ZM76.7894 176.138V175.271C34.7305 175.27 0.867675 146.015 0.867675 110.194H0H-0.867675C-0.867675 147.212 34.0294 177.006 76.7894 177.006V176.138ZM0 110.194L0.867675 110.194C0.867833 74.3736 34.7306 45.1193 76.7894 45.1193V44.2516V43.3839C34.0295 43.384 -0.867511 73.1766 -0.867675 110.194L0 110.194ZM76.7894 44.2516V45.1193C92.8683 45.1193 107.771 49.4034 120.037 56.7042L120.481 55.9586L120.925 55.213C108.386 47.7499 93.1758 43.3839 76.7894 43.3839V44.2516ZM120.481 55.9586L121.191 56.4573C124.864 51.2283 131.374 47.7219 138.828 47.7219V46.8542V45.9866C130.835 45.9866 123.784 49.7471 119.771 55.4598L120.481 55.9586ZM138.828 46.8542V47.7219C140.753 47.7219 142.614 47.9566 144.382 48.3936L144.59 47.5513L144.798 46.709C142.896 46.2385 140.894 45.9866 138.828 45.9866V46.8542ZM144.59 47.5513L145.321 48.0192C151.778 37.9344 163.165 31.236 176.138 31.236V30.3683V29.5006C162.554 29.5006 150.626 36.5163 143.859 47.0834L144.59 47.5513ZM176.138 30.3683V31.236C184.916 31.236 192.966 34.3022 199.256 39.4081L199.802 38.7345L200.349 38.0608C193.76 32.7119 185.327 29.5006 176.138 29.5006V30.3683ZM199.802 38.7345L200.565 39.1479C204.773 31.3835 213.416 26.0307 223.427 26.0307V25.163V24.2953C212.798 24.2953 203.56 29.9808 199.04 38.321L199.802 38.7345ZM223.427 25.163V26.0307C228.789 26.0307 233.759 27.5672 237.867 30.1885L238.334 29.4571L238.8 28.7257C234.417 25.9281 229.123 24.2953 223.427 24.2953V25.163ZM238.334 29.4571L239.134 29.7919C246.278 12.7112 262.22 0.867675 280.693 0.867675V0V-0.867675C261.441 -0.867675 244.915 11.4733 237.533 29.1223L238.334 29.4571Z" fill="black" mask="url(#path-1-inside-1_337_1044)"/>
</svg>
